<?xml version="1.0" encoding="UTF-8"?>
<svg id="Imagotipo_Negativo" data-name="Imagotipo Negativo" xmlns="http://www.w3.org/2000/svg" viewBox="0 0 3781.01 1597">
  <path id="Contorno" d="M3295.27,1121.5c-1.76-17.17-12.55-24.77-28.97-31.38,10.65-39.24,22.31-87.3-15.23-118.17,9.36-.37,20.84-1.89,11.54-11.27-5.22-5.27-15.22-8.4-23.08-7.78,2.51-18.04-9.07-41.21-30.76-43.22-.77,6.22,1.88,11.94,2,18.1.04,1.92,1.05,4.83-1.99,4.36-8.03-15.18-26.61-26.06-43.26-32.86-40.81-16.67-80.39-14.37-122.13-4.3-20.95,5.06-46.32,12.52-64.71,19.94l-62.8-4.91c-10.66,2.94-7.3,26.76-3.26,34.23-2.33,1.92-17.19-7.66-20.73,6.43-4.3,17.13,6.33,36.28,22.82,44.82-8.62,15.04-11.6,27.67-9.85,44.8,1,9.78,7.43,21.37,9.25,31.45,1.01,5.59-.52,11.41,2.41,16.78-25.64,8.9-31.76,32.64-26.48,55.01,3.05,12.93,15.61,32.1,28.58,38.28,5.22,2.49,10.83,4.26,16.74,4.82,3.14,20.06,20.44,30.7,33.05,45.49-11.55,15.1-16.2,31.47-5.63,48.27-23.4,13.14-31.01,36.79-40.72,58.45-.57,1.27-3.21,1.3-3.59,2.61-1.92,6.59,4.52,10.43,9.54,14.32,2.2-10.13,5.7-20.33,10.07-29.85,4.48-9.79,21.2-40.55,35.01-39.32,8.22.73,36.16,23.07,48.26,24.14,3.93,6.38-2.57,12.92-2.85,18.35-.39,7.54,4.21,20.73,1.85,28.93-.71,2.46-6.79.01-5.67,10.57,1.24,11.61,23.68,10.41,24.85-1.74.31-3.18-1.69-6-1.54-8.49.84-13.99,2.57-28.17,1.55-42.36,24.31,4.47,4.86-6.15-5.78-6.91v47.55l-9.61,2.6,3.01-53.62c-29.82-13.74-85-31.56-49.2-68.37,10.12,4.04,19.9,8.99,30.26,12.66,5.29,1.88,18.55,3.46,21.75,6.38,3.41,3.11,1.74,15.38,5.71,19.92-2.53,2.27-18.07-16.16-24.99-11.23,8.09,5.46,13.74,12.96,21.11,19.05,6.61,5.45,24.03,15.56,28.29,20.36,3.59,4.04.44,9.69,4.4,11.59.29-2.38,1.34-4.95,2.99-6.83,18.78-21.47,60.54-38.89,88.04-50.52,16.28-6.89,47.75-15.23,60.92-23.03.79-.47,2.54-2.14,1.91-2.58l-21.15-5.23c10.74-28.62,53.48-4.26,55.37,16.96.66,7.36-4.22,9.77-7.31,15.9l7.51.18c3.51,13.2,6.62,24.88.16,37.87-3.03,2.02-12.74-11.32-16.33-13.82-17.06-11.9-35.1-6.25-53.87-1.76-20.88,5-52.01,14.4-72.08,21.64-2.25.81-4.22,1.73-5.77,3.46v49.28c-2.23.7-7.69-.76-7.69-2.59v-41.5c0-.29,4.89-5.94-.92-4.3-3.84,1.08-11.76,4.67-16.02,6.43-2.73,1.13-5.24-1.02-4.2,3.91h15.38c2.69,2.42-3.54,39.79-1.89,47.52,2.21,10.34,21.78,10.55,23.02-1.86.39-3.91-1.92-7.76-1.99-11.87-.24-13.47.12-27.03.33-40.47,9.75-4.04,21.06-2.81,30.98-5.87,22.64-6.99,36.66-13.9,61.5-17.33,14.83-2.04,16.49-6.69,29.17,4.13,17.1,14.6,28.53,41.76,33.86,62.06,6.9-5.28,7.04-11.95,5.64-19.78-1.32-7.42-14.51-23.49-15-28.06-.29-2.7,4.47-5.12,5.91-8,9.15-18.22-.93-25.7-1.87-40.55-.42-6.75,2.93-13.38,1.03-21.66-3.78-16.46-26.35-29.54-43.81-31.53l6.09-12.67c47.85,2.49,75-31.29,70.81-72.03ZM2931.86,1175.96c-1.16,1.02-15.28-3.29-17.21-4.41-3.27-1.88-12.67-19.27-14.13-23.61-4.95-14.67-6.25-46.71,15.17-49.86,13.21,5.01,10.46,12.83,12.32,24.26-4.4.26-8.37-3.39-12.58-3.37-2.72.02-11,5.95-2.8,5.1.67-.46,8.4-.12,10.16.37,11.49,3.18,9.17,23.97,9.07,32.49-.08,6.32.07,12.7,0,19.02ZM3035.7,1362.71c-.2,8.19-9,12.09-15.36,6.03-1.07-8.65,9.15-3.96,15.36-6.03ZM3095.57,1369.38l-2.16-10.13c3.01,2.48,14.84-.75,15.38,2.62.86,5.44-7.52,9.83-13.21,7.51ZM2956.87,1003.05c2.43-1.67,18.71-5.2,21.97-5.07,6.73.26,20.41,6.04,30.94,6.78,29.8,2.09,49.92-5.83,75.26-6.77,6.78-.25,12.43,2.91,18.96,3.32,18.21,1.13,35.37-1.01,52.86-5.17,8.3-3.35,16.79-6.84,25-10.37.54-.23,1.49-3.99,4.61-3.41l8.85,10.32c3.39,1.17,6.69,4.31,11.54,3.46v35.45c0,4.59,4.13,22.16,5.95,27.16.67,1.83,8.45,7.33,5.58,13.46-8.29,2.35-10.83-3.58-15.94-5.53-23.2-8.85-64.85-11.53-87.86-2.22-14.69,5.95-23.66,18.01-26.98,31.98l-31.71-3.46c-5.39-21.9-29.19-31.13-51.93-32.84-7.93-.59-25.38-1.08-32.8-.17-1.5.18-6.06,1.63-11.15,2.4-4.24.64-12.48,5.64-15.73,1.22-1.91-2.59,7.26-56.87,12.59-60.54ZM3178.77,1158.5c-7.01,2.59-28.21,7.03-34.84,4.79-4.4-1.49-15.29-5.77-20.4-8.37-25.91-13.21-37.38-60.91-10.74-76.49,19.76-11.56,81.37-14.06,91.56,9.01,10.46,23.69,3.02,60.51-25.58,71.06ZM2981.46,1071c20.17-1.52,56.01,1.9,61.08,23.6,5.86,25.07-1.37,59.27-33.64,65.04-40.68,7.28-64.85-8.9-69.14-45.24-3.63-30.78,9.19-40.94,41.69-43.4ZM3127.42,1262.75c-5.36,3.26-20.08,9.74-26.33,11.77l-35.63,24.25c-1.84.05-2.36-1.59-2.83-1.77-13.7-5.32-18.09-17.06-23.06-28.54,5.81-2.9,7.09,6.78,11.5,7.79l-3.82-17.28c28.06,3.6,56.65,1.89,84.59-1.73.82,3.55-1.96,4.01-4.43,5.51ZM3199.14,1234.77c-.79,2.25-9.1,3.96-11.44,4.38-3.25.58-6.35,1.19-9.69.77,1.13-1.82,9.65-6.28,11.07-6.6,3.83-.87,6.57.83,10.06,1.45ZM3109.5,1250.1c-70.37,8.39-174.52-17.3-168.01-96.61,1.88-1.99,10.51,7.05,12.81,8.35,29.2,16.57,59.78,11.51,85.25-6.63.59-.42.2-2.73,3.84-1.72-.93,14.65,11.66,21.39,26.92,18.99-2.69-3.18-7.4-3.87-11.53-6.9-6.95-5.1-9.1-14.35-1.88-19.84,3.36-2.55,8.79-1.16,9.56-4.34-2.85-.69-4.65-1.31-7.75-1.03-3.34.3-8.48,5.22-7.63.16.76-4.54,4.17-9.54,5.32-14.25,2.39-9.72-4.48-14.8,10.43-18.28,8.57-2,12.76-1.17,20.47,2.54,1.4,28.57,12.36,50.93,44.94,59.02,41.82,10.39,79.12-8.47,90.01-45.46,14.18,15.47,12.88.5,18.15-8.73,8.44-14.77,22.67-25.08,38.36-10.12,26.19,24.96-5.17,87.11-47.63,79.12l-3.79-5.22-3.17-15.27c-11.91,51.82-58.87,79.58-114.67,86.23ZM3136.32,1049.76c1.54-.3,1.22-3.4,2.51-3.57,1.22-.16,21.79.28,24.31.46,8.56.64,17.05,9.6,26.39,8.26-4.68-28.57-39.97-37.55-65.27-21.52-3.63,2.3-12.19,10.48-9.45,14.4,1.03,1.47,18.94,2.46,21.51,1.97ZM2986.92,1048.56c4.62-.32,16.13-.69,20.82-.62,6.52.11,14.74,3.43,22.21,1.8,4.16-17.96-17.37-24.31-33.71-22.51-12.87,1.42-31.25,15.76-33.59,27.69,9,2.09,16.4-5.81,24.27-6.36ZM3029.94,1094.69c-.57-12.45-24.03-18.46-35.1-16.89-12.35,1.76-24.38,14.31-26.14,25.21-.68,4.18,1.46,4.63,1.63,5.51,9.7-23.35,38.21-30.31,59.61-13.83ZM2964.54,1324.67c-2.72-.41-2.79,3.06-3.27,4.8-3.77,13.73-1.33,28.02-4.4,41.88,2.6,1.03,5.05,2.55,7.69,3.46-1.12-16.73,1.77-33.85-.02-50.13ZM3198.22,1316.03c-8.69,3.89-18.78,37.05-19.98,46.02-1.11,8.26,1.71,17.07-2.16,24.86,3.45-.48,6.31-1.14,9.61-1.73-3.45-25.62,4.2-43.06,14.58-65.56,1.17-2.54,1.15-5.02-2.06-3.59ZM3128.56,1082.22c-7.09,4.6-6.14,9.86-12.08,14.2,6.57-1.63,9.24-6.43,15.97-8.98,11.61-4.41,23.42-3.53,33.89,3.05,3.69,2.32,11.31,11.09,13.59,14.58,1.71-23.1-31.35-35.83-51.37-22.85ZM3245.31,1141.38c15.93-13.17,14.66,8.71,11.54,19.02,9.15-8.25,10.91-13,3.85-24.21-1.89-1.23-2.9-4.49-7.7-3.48,3.24-10.1,14.85-14.02,23.08-5.17-2.03-29.5-40.86,2.58-35.58,19.01,1.89-1.49,2.99-3.67,4.82-5.18ZM3134.87,1182.74c-7.56-5.49-9.5,4-13.56,7.07-16.39,12.39-54.65,15.43-74.07,7.76-7.5-2.96-11.82-9.08-19.21-11.23-1.1,10.3,12.15,16.75,21.57,19.49,28.85,8.41,60.25-.35,84.66-14.74,4.44-2.61,4.93-5.21.61-8.35ZM3023.21,1096.25c-1.72-1.01-3.65-1.79-5.8-2.3-4.44-1.05-8.16-2.2-12.6-.15-8.25,3.81-11.81,13.64-12.91,21.4-1.15,8.18-.1,18.51,7.22,24.27,4.86,3.83,11.45,4.19,17.49,2.9,14.2-3.05,18.69-19.48,16.6-30.9-1.15-6.32-4.44-11.95-10-15.22ZM3023.9,1113.46c-9.74,5.55-17.68-10.76-5.98-11.53,9.13-.6,9.55,9.5,5.98,11.53ZM3132.81,1093.82c-19.78,6.2-17.58,55.83,15,47.2,20.42-5.41,18.04-57.55-15-47.2ZM3149.91,1111.83c-11.22,3.3-10.06-10.92-3.39-11.83,5.41-.75,9.89,9.92,3.39,11.83ZM3107.91,1187.55c1.98,0,3.59-1.46,3.59-3.27,0-.48-.21-.86-.32-1.05-.89-1.44-3.14-1.4-3.27-1.4-1.37.04-2.92.72-3.44,1.91-.05.12-.15.29-.15.54,0,1.8,1.61,3.27,3.59,3.27Z"/>
  <text transform="translate(2874.07 1469.8) scale(.95 1)" fill="#020202"  font-size="107.2"><tspan x="0" y="0">Diego Suarez</tspan></text>
  <text transform="translate(2795.81 1510.65) scale(.95 1)" font-size="48"><tspan x="0" y="0">Desarrollador de software</tspan></text>
</svg>