<svg width="106" height="147" viewBox="0 0 106 147" fill="none" xmlns="http://www.w3.org/2000/svg">
<path d="M100.5 103.5L103.5 108L105 111.5L104.5 114.5V118L101 123L98.5 123V125.5L97 127H95L85.5 122.5V128.5L83.5 133.5V137.5L82 139.5L78.5 142L71.5 144.5L66.5 145.5L61.5 146L51.5 146.5L43 146L35 144.5L27.5 142L23 139L22 134L20 127.5V122L12 125.5L9.5 127L7.5 126L6.5 123.5L4 122L1.5 117L1 112L2 107L8 99.5L18.5 93L24 91L25.5 93L27.5 94.5L31.5 96.0416L41.5 96.5L44.5 97V95L46 94.5L47.2964 95.5627L47.3167 95.6122V95.5897L48.5 98.5L51.2265 99.7697H53.6967L55.5 99.5L57.8122 98L58 95L59.5 94.5L60.5 95L61 96.0416L60.9808 97.2617L62.5 96.5H66L74 96.0416L78.5 93.9583L82 91L93.5 97L98 99.7697L100.5 103.5Z" fill="#F5EEEE"/>
<path d="M47.2964 112.36L40.5 112.35L39.5 117.5L37 122L34 123.5L33.5 126M47.2964 112.36L50.6301 112.84L57.7458 112.951M47.2964 112.36L44.5 112.5M47.2964 112.36L48 113L49 114.5V115.5L48.6679 116.75L48 117.5L46.5 118.5L44.5 118L42.75 116.75M47.2964 112.36L47.3059 108.51M47.2964 112.36L47.3167 104.195M98.5 123L101 123L104.5 118V114.5L105 111.5L103.5 108L100.5 103.5L98 99.7697L93.5 97L82 91L78.5 93.9583L74 96.0416L66 96.5H62.5L60.7425 97.3812V99.5V103.745V112.35M98.5 123V125.5L97 127H95L85.5 122.5M98.5 123L96 122L93.5 120.5L85.5 117M85.5 122.5V117M85.5 122.5V128.5L83.5 133.5M84 111L85 109L88 107M84 111L85.5 117M84 111L83.5 108.5L83 106L81.5 102M57.8122 98L58 95L59.5 94.5L60.5 95L61 96.0416L60.7425 112.35M57.8122 98L58 105.5V109.5V112L58.5 112.5L60.7425 112.35M57.8122 98L55.5 99.5L53.6967 99.7697H51.2265L48.5 98.5M60.7425 112.35L57.5 113L56.5 114.5V115.5L57 117L58 118L59.5 118.5L61 118L62 116.5M60.7425 112.35L62 114M60.7425 112.35H65L65.5 115L66 116.5V117L67 119.5L68 121L70 122.5L71.5 123L72 123.5V126.5M60.7425 112.35H62.8713M62 116.5V115.5V114M62 116.5L64 119L64.5 120.5L66.5 123M62 116.5V114M72 126.5V127V128L71.5 129L70 132L67.5 134L64.5 135L58.5 136H52.5H46.5L41 135L36.5 133L35 131L34 128.5L33.5 126M72 126.5L69.5 124.909L68 124L66.5 123M72 126.5L66.5 123M33.5 126L36.5 125L39 123.5L40.7463 121.522L42.75 116.75M42.75 116.75L42.5 114.5L43.5 112.571L44.5 112.5M44.5 112.5V105V95M47.3059 108.51L47.2964 104.358L47.3167 99.7697V95.5897M47.3059 108.51L47.3167 104.195M47.3167 104.195V95.5897M44.5 95L46 94.5L47.2964 95.5627L48.5 98.5M44.5 95V97L41.5 96.5L31.5 96.0416L27.5 94.5L25.5 93L24 91L18.5 93L8 99.5L2 107L1 112L1.5 117L4 122L6.5 123.5M47.3167 95.5897L48.5 98.5M24 102.5L22 107.5M6.5 123.5L7.5 126L9.5 127L12 125.5L20 122V127.5M6.5 123.5L9.5 121.5L14.5 119L20.601 116.49L20.0665 122.266M15.5 106L19 108.51L21.4 110.5L22 107.5M22 107.5L21 112.5L20.0665 122.266M20.0665 122.266L20 127.5M20 127.5L22 134M83.5 133.5L73.5 139L69 140L59.5 141L50.5 141.5L42 140.5L34 139.5L28 137.5L22 134M83.5 133.5V137.5L82 139.5L78.5 142L71.5 144.5L66.5 145.5L61.5 146L51.5 146.5L43 146L35 144.5L27.5 142L23 139L22 134" stroke="black"/>
<path d="M82 86.5L79.5 87.5L77.5 88.5L75.5 89.5L69 91L64.5 92L63 92.5L61 93L58.5 93.5H55H50.5L45 93L37.5 91L32 90L29.5 89.5L25.5 88.5L24.5 90V92L29 94.5L32.5 95.5L38.25 95.75L42.5 96L44 96.5V96L44.5 95L46 94.5L47.5 95L48 96.5L48.5 98L51.5 99H55L57 97.5L58 95L59.5 94.5L61 95L61.5 96.5L64 96H67.5L71 95.5L74 95L77.5 94L80.5 92L81.5 91V89.5L82 88V86.5Z" fill="#0565E6"/>
<path d="M81.5 89.5L79.5 90.5L78 91.5L76 92L74.5 92.5H72.5L69 93L62.5 94.5M81.5 89.5V91L80.5 92L77.5 94L74 95L71 95.5L67.5 96H64L61.5 96.5L61 95L59.5 94.5L58 95L57 97.5L55 99H51.5L48.5 98L48 96.5L47.5 95L46 94.5L44.5 95L44 96V96.5L42.5 96L38.25 95.75L32.5 95.5L29 94.5L24.5 92V90M81.5 89.5L82 88V86.5L79.5 87.5L77.5 88.5L75.5 89.5L69 91L64.5 92L63 92.5L61 93L58.5 93.5H55H50.5L45 93L37.5 91L32 90L29.5 89.5L25.5 88.5L24.5 90M42.5 93V94L40.5 93.5L36.5 93L31 92.5L27 91.5L24.5 90" stroke="black"/>
<path d="M8.5 44L10 52L11 55.5H13L15 53L16.5 46L20 40.5L22 36L26.5 34.5L37 33.5L50.5 33L64 32L77 33.5L86 38.5L87.5 46L88.5 50L89 54L93 55L94.5 53L95.5 49L96.5 42.5L97 35.5V29.5L95.5 24L91 19L89 16L85.5 12L81 7L74 3L69.5 1.5L66.5 2.5L65 6.5L63.5 4L60 2.5L54.5 1L46.5 0.5L38.5 1.5L32 4.5L28.5 7.64286L27 9.5L26.5 11.6429L23.5 12.5H21L18 14L15 17L12.5 19.5L12 22.5L11 27.5L9 28.5L8 31.5V36.5L8.5 44Z" fill="#493E3E"/>
<path d="M77 33.5L86 38.5L87.5 46L88.5 50L89 54L93 55L94.5 53L95.5 49L96.5 42.5L97 35.5V29.5L95.5 24L91 19L89 16L85.5 12L81 7L74 3L69.5 1.5L66.5 2.5L65 6.5L63.5 4L60 2.5L54.5 1L46.5 0.5L38.5 1.5L32 4.5L28.5 7.64286L27 9.5L26.5 11.6429L23.5 12.5H21L18 14L15 17L12.5 19.5L12 22.5L11 27.5L9 28.5L8 31.5V36.5L8.5 44L10 52L11 55.5H13L15 53L16.5 46L20 40.5L22 36L26.5 34.5L37 33.5L50.5 33L64 32L77 33.5ZM77 33.5V31.5L76 28.5L74 26.5L71 25L67.5 23.5L62.5 24.5L61 27.5L58 24H55L53.3889 25.5L52 30.5L54.5 21.5L52 19H49L46 21L44 26.5" stroke="black"/>
<path d="M13.5 54.5L21 35.5L29.5 33H40L61 32L79 34L86 39L88 44.5L90.3742 53.9969L96.5 57.5L98 61V63.5L97.5 67.5L95 71L92 73.5H89L88 78L86 81L81.5 86.5L72.5 90.5L61.5 93H49.5L38 91.5L28.5 89.5L20 85L15.5 77L14.8 73.5H12L9 71.5L6.5 65.5V62.5L7 60L9 57.125L11.5 56L12.625 57.125L13.5 54.5Z" fill="#EBB484"/>
<path d="M89 73.5L88 78L86 81L81.5 86.5L72.5 90.5L61.5 93H49.5L38 91.5L28.5 89.5L20 85L15.5 77L14 69.5L13.5 62L12.625 57.125M89 73.5L90.5 63.5V54.5L88 44.5M89 73.5H92L95 71L97.5 67.5L98 63.5V61L96.5 57.5L90.3742 53.9969L88 44.5M88 44.5L86 39L79 34L61 32L40 33H29.5L21 35.5L13.5 54.5L12.625 57.125M14.8 73.5H12L9 71.5L6.5 65.5V62.5L7 60L9 57.125L11.5 56L12.625 57.125" stroke="black"/>
<path d="M44 78L45 81.125L46.6154 82.375L49.3077 83H52M46.6154 77.5H48" stroke="black" stroke-width="2"/>
<path d="M51.5 67.5C54.3 67.9 55.3333 68.1667 55.5 68.5L56.5 70.5L55.5 73H53.5L51 72.5H50.5" stroke="black"/>
<path d="M57 62.5V56H52H47.5V64L45.5 70.5L41 73.5L37 75.5H29L25 74.5L20.5 71.5L19 64L17.5 55.2353L21 54L30 53L38 52.5L44.5 54L47.5 56H52H57L62 53L70 52.5H77.5L85 54L85.5 62.5L84.5 69L81.5 73L76 75.5H69L62 73L58.5 69L57 62.5Z" fill="#F1E0CF"/>
<path d="M47.5 56H52H57M47.5 56L44.5 54L38 52.5L30 53L21 54L12.5 57L17.5 55.2353L19 64L20.5 71.5L25 74.5L29 75.5H37L41 73.5L45.5 70.5L47.5 64V56ZM57 56V62.5L58.5 69L62 73L69 75.5H76L81.5 73L84.5 69L85.5 62.5L85 54M57 56L62 53L70 52.5H77.5L85 54M90.5 55L85 54" stroke="black" stroke-width="2"/>
<path d="M27 46L24 48.5L23.5 49.5L24 50L25.5 50.5L27.5 49.5L28.5 48.5L30.5 47.5H36.5L39 49L40.5 50.5H41.5L42 49.5V48.5L41 47L39 46L36 45H33H29.5L27 46Z" fill="black"/>
<path d="M63 48L65 46.5L68.5 44.5H75.5L77 45L78.5 45.5L80 47L81 48V49.5L80 50L78.5 49.5L76.5 49L74.5 47.5H69L67.5 48L65 49.5L64.5 50.5H63.5L62.5 50V49L63 48Z" fill="black"/>
<path d="M27 46L24 48.5L23.5 49.5L24 50L25.5 50.5L27.5 49.5L28.5 48.5L30.5 47.5H36.5L39 49L40.5 50.5H41.5L42 49.5V48.5L41 47L39 46L36 45H33H29.5L27 46Z" stroke="black"/>
<path d="M63 48L65 46.5L68.5 44.5H75.5L77 45L78.5 45.5L80 47L81 48V49.5L80 50L78.5 49.5L76.5 49L74.5 47.5H69L67.5 48L65 49.5L64.5 50.5H63.5L62.5 50V49L63 48Z" stroke="black"/>
<path d="M28.5 61L29.5 58.5L30.5 56.5L32.5 56H34.5L36.5 58L38 61V64.5V66.5L37.5 69L36 70.5L34.5 71.5H32L30.5 70.5L29.5 68.5L28.5 66V63.5V61Z" fill="#040404"/>
<path d="M69 71L68 69.5L67 68L66.5 65.5V63.5V61L67 59.5L67.5 58L69.5 56H70.5H72H73.5L75 57L75.5 58.5L76 60.5V63.5V66V68.5L74.5 70.5L72.5 71.5L69 71Z" fill="#040404"/>
<path d="M28.5 61L29.5 58.5L30.5 56.5L32.5 56H34.5L36.5 58L38 61V64.5V66.5L37.5 69L36 70.5L34.5 71.5H32L30.5 70.5L29.5 68.5L28.5 66V63.5V61Z" stroke="black"/>
<path d="M69 71L68 69.5L67 68L66.5 65.5V63.5V61L67 59.5L67.5 58L69.5 56H70.5H72H73.5L75 57L75.5 58.5L76 60.5V63.5V66V68.5L74.5 70.5L72.5 71.5L69 71Z" stroke="black"/>
<path d="M30 62L30.5 59.5L32.5 59L33.5 59.5L34.5 61L34 62.5L33 63.5L31 63L30 62Z" fill="white"/>
<path d="M69.5 63L69 61.5L69.5 59.5H71L72.5 60L73 61.5L72.5 63L71 63.5L69.5 63Z" fill="white"/>
<path d="M30 62L30.5 59.5L32.5 59L33.5 59.5L34.5 61L34 62.5L33 63.5L31 63L30 62Z" stroke="black"/>
<path d="M69.5 63L69 61.5L69.5 59.5H71L72.5 60L73 61.5L72.5 63L71 63.5L69.5 63Z" stroke="black"/>
<path d="M11.5 126.5L19.5 123L20.5 130.5L21.5 134.5L22 137L20.5 138L17.5 138.5L14 138L11.5 137L10 134.5L9.5 132.5L10.5 129.5H12L14 130.5L12 128.5L11.5 126.5Z" fill="#EBB484"/>
<path d="M87.5 138.5L84 138V134L85.5 130.5L86 127V123.5L93.5 127V128.5L90.5 131L92.5 130H94.5L95.5 132V134.5L92.5 137.5L87.5 138.5Z" fill="#EBB484"/>
<path d="M11.5 126.5L19.5 123L20.5 130.5L21.5 134.5L22 137L20.5 138L17.5 138.5L14 138L11.5 137L10 134.5L9.5 132.5L10.5 129.5H12L14 130.5L12 128.5L11.5 126.5Z" stroke="black" stroke-width="0.5"/>
<path d="M87.5 138.5L84 138V134L85.5 130.5L86 127V123.5L93.5 127V128.5L90.5 131L92.5 130H94.5L95.5 132V134.5L92.5 137.5L87.5 138.5Z" stroke="black" stroke-width="0.5"/>
</svg>
