<?xml version="1.0" encoding="UTF-8"?>
<svg xmlns="http://www.w3.org/2000/svg" viewBox="0 0 459.35 622.53">
  <g id="Contorno_negativo" data-name="Contorno negativo">
    <path d="M436.91,359.2c16.19-16.78,24.02-42.07,21.47-69.37-1.99-21.36-14.1-31.48-31.81-39.63,6.24-25.45,11.69-50.35,11.21-74.84-.54-27.74-8.83-49.52-25.31-66.39,5.95-.67,11.25-2.23,12.91-6.2,1.34-3.19.04-6.91-3.98-11.36-5.57-6.18-15.6-10.32-24.78-10.45.93-13.58-3.42-28.07-11.68-38.46-6.68-8.41-15.35-13.38-25.07-14.37-1.38-.13-2.58.85-2.74,2.21-.53,4.73.28,9.16,1.06,13.44.54,2.94,1.04,5.72,1.14,8.56-10.74-17.69-31.04-29.65-46.82-36.74-40.56-18.23-83-19.9-137.59-5.4-26.37,7-53.14,16.06-71.8,24.29l-69.26-5.96c-.32-.03-.64,0-.94.1-3.25.99-5.73,3.42-7.39,7.23-4.12,9.5-2.11,25.52.77,34.42-.26-.07-.52-.13-.75-.19-4.22-1.1-10-2.6-14.84.34-3.03,1.84-5.11,5.15-6.18,9.84-4.72,20.68,5.77,44.48,24.54,56.39-9.21,18.36-12.06,33.74-10.17,54.16.63,6.76,3.08,14.15,5.46,21.29,1.95,5.86,3.96,11.93,4.87,17.4.38,2.3.41,4.66.45,7.16.05,3.81.11,7.73,1.43,11.62C1.81,260.99-2.99,292.16,2.46,317.57c3.57,16.64,18.04,40.68,33.09,48.57,5.89,3.09,11.8,5.08,17.62,5.94,3.14,17.59,14.19,29.56,24.9,41.15,3.69,3.99,7.49,8.11,10.96,12.44-13.7,20.5-15.88,40.05-6.48,58.17-21.99,14.62-31.29,38.34-40.28,61.3-1.29,3.29-2.62,6.7-3.97,10-.19.12-.57.3-.83.42-1.13.53-2.83,1.32-3.35,3.27-2.31,8.73,4.27,14.17,9.56,18.54.63.52,1.25,1.03,1.86,1.55.67.58,1.61.75,2.44.46.84-.29,1.46-1.01,1.63-1.88,2.34-11.84,6.16-24.32,11.06-36.09,6.42-15.45,23.42-46.66,35.73-46.66.23,0,.46.01.69.03,3.5.34,12.41,6.35,21.03,12.16,11.43,7.7,23.22,15.65,31.25,17.2,1.45,3.69-.08,7.6-1.68,11.73-1.07,2.74-2.17,5.57-2.3,8.36-.19,3.92.54,8.82,1.31,14,1.05,7.1,2.24,15.13.9,20.67-.18.1-.46.22-.68.32-3.29,1.46-6.73,3.84-5.77,13.76.7,7.27,6.77,12.15,15.12,12.14h.1c8.04-.04,16.6-4.96,17.42-14.31.23-2.57-.43-4.85-1-6.86-.39-1.36-.76-2.65-.7-3.62.22-4.11.51-8.31.79-12.38.82-11.96,1.66-24.29,1.11-36.59,8.28,1.45,10.86.76,12.13-.8.77-.95.93-2.22.42-3.4-1.74-4.06-14.08-9.23-21.46-9.81-.7-.05-1.38.18-1.89.66-.51.47-.8,1.14-.8,1.84v56.37l-5.51,1.64,3.17-62.14c.05-.99-.49-1.91-1.37-2.36-3.56-1.8-7.39-3.64-11.45-5.59-22.53-10.81-50.57-24.26-54.47-43.56-1.83-9.04,1.67-18.64,10.71-29.31,4,1.8,8.01,3.75,11.91,5.65,6.53,3.17,13.27,6.45,20.19,9.15,2.31.9,5.72,1.71,9.34,2.57,5.17,1.23,12.25,2.91,14,4.68,1.23,1.23,1.76,5.89,2.18,9.62.3,2.61.6,5.26,1.13,7.7-.71-.59-1.43-1.19-2.08-1.73-7.21-6.06-16.17-13.6-22.46-8.67-.61.48-.97,1.22-.96,2s.38,1.51,1.01,1.97c5.09,3.78,9.24,8.36,13.64,13.2,3.05,3.36,6.2,6.83,9.67,9.98,3.22,2.92,8.46,6.75,14.02,10.8,6.88,5.02,14.68,10.72,17.21,13.85,1.43,1.77,1.57,4.01,1.73,6.38.19,2.94.43,6.59,3.95,8.46.73.39,1.61.39,2.34,0s1.22-1.11,1.31-1.94c.28-2.59,1.33-5.23,2.8-7.08,20.16-25.36,65.43-46.43,95.39-60.38l1.69-.78c7.05-3.28,16.66-6.83,26.84-10.58,15.81-5.83,32.16-11.86,41.27-17.8.03-.02,3.3-2.3,3.41-4.79.04-.96-.36-1.85-1.1-2.43-.26-.21-.56-.36-.89-.44l-20.86-5.68c4.79-10.96,13.38-12.42,19.97-11.6,16.54,2.06,34.62,19.35,35.84,34.26.42,5.14-1.4,7.81-3.93,11.51-1.29,1.89-2.76,4.04-3.98,6.72-.35.76-.29,1.65.15,2.36s1.22,1.15,2.05,1.18l6.44.17c3.51,14.55,6.24,27.37.58,41.27-2.23-1.51-6.41-6.53-8.8-9.4-2.52-3.03-4.7-5.64-6.28-6.85-18.61-14.28-38.46-8.95-57.65-3.79-1.48.4-2.97.8-4.46,1.19-22.89,6.03-57.5,17.46-80.51,26.6-2.6,1.03-5.3,2.35-7.44,4.99-.36.45-.56,1-.56,1.57v58.02c-1.35-.2-2.96-.75-3.56-1.25v-49.75s0,0,0,0c1.2-1.9,3.21-5.09,1.43-7.41-1.65-2.15-4.7-1.2-5.71-.89-3.35,1.04-8.93,3.67-13.86,6-1.59.75-3.06,1.44-4.26,1.99-.51.23-1.08.25-1.73.28-1.06.05-2.67.12-3.78,1.51-1.19,1.51-.99,3.65-.59,5.74.22,1.18,1.26,2.03,2.46,2.03h15.3c.44,4.17-.64,16.56-1.46,25.88-1.14,13.09-2.22,25.46-1.28,30.3,1.53,7.89,9.16,11.68,15.92,11.33,6.69-.34,13.82-4.75,14.64-13.85.27-3.01-.44-5.85-1.12-8.6-.54-2.15-1.05-4.18-1.08-6.21-.21-13.12,0-26.53.22-39.5.05-2.79.09-5.59.13-8.38,5.22-2.07,10.84-2.74,16.77-3.43,5.32-.63,10.83-1.28,16.03-3.05,7.27-2.47,13.69-4.91,19.91-7.27,15.38-5.85,28.65-10.89,48.11-13.85,4.04-.61,7.28-1.42,9.88-2.08,8.03-2.01,10.74-2.69,20.51,6.49,22.87,21.49,34.07,62.66,36.96,74.77.2.84.83,1.52,1.65,1.79.82.27,1.73.1,2.39-.46,8.85-7.45,8.66-17.16,7.14-26.54-.87-5.39-5.51-13.35-10-21.06-3.04-5.22-6.48-11.13-6.68-13.15-.08-.79,1.5-2.45,2.66-3.66,1.41-1.48,2.87-3.01,3.71-4.85,7.14-15.65,4.2-25.61,1.36-35.25-1.41-4.79-2.88-9.75-3.21-15.59-.18-3.11.3-6.29.81-9.66.76-5.06,1.63-10.79.29-17.24-4.16-19.93-27.29-36.2-47.62-40.07l4.79-10.97c23.52.94,43.63-6.53,58.23-21.67Z" stroke="#fff" stroke-miterlimit="10"/>
    <g>
      <path d="M88.21,536.44c-4.91-.83-5.88,4.56-6.25,6.59-.08.42-.14.81-.23,1.15-2.29,9.17-2.58,18.57-2.86,27.65-.24,7.85-.5,15.97-2.06,23.75-.23,1.16.37,2.32,1.46,2.79,1.19.52,2.36,1.15,3.6,1.82,1.61.88,3.28,1.78,5.08,2.46.29.11.58.16.88.16.53,0,1.05-.17,1.48-.49.68-.5,1.06-1.32,1.01-2.16-.57-9.35-.19-18.99.18-28.32.43-10.95.88-22.28-.21-33.18-.11-1.12-.96-2.03-2.08-2.22Z"/>
      <path d="M346.77,526.07c-11.67,5.74-22.59,49.92-23.61,58.31-.48,3.94-.33,7.93-.19,11.8.24,6.4.46,12.45-2.01,17.93-.38.84-.27,1.81.29,2.54.48.63,1.22.99,1.99.99.13,0,.25,0,.38-.03,2.59-.4,4.93-.9,7.18-1.38,1.18-.25,2.37-.51,3.62-.75,1.29-.25,2.16-1.46,2-2.76-3.86-31.52,5.37-53.54,16.05-79.03,1.39-3.31,1.29-5.93-.26-7.39-.92-.87-2.61-1.61-5.45-.21Z"/>
    </g>
  </g>
  <g id="Color_Blango_negativo" data-name="Color Blango negativo">
    <g>
      <path d="M337.62,425.58c-1.57.39-11.06,5.85-12.32,8.08.13.02.25.02.37.04-.12.14-.22.28-.29.4,3.71.51,7.17-.24,10.78-.94,2.61-.51,11.85-2.61,12.73-5.36-.09-.02-.18-.04-.28-.06.07-.12.15-.25.19-.38-3.88-.76-6.94-2.84-11.2-1.78Z" fill="#fff"/>
      <path d="M246.6,581.16c-1.21-.61-2.03-.06-8.3,0-.89,0-1.61,0-2.08,0-2.08-.69-4.15-1.37-6.23-2.06.58,11.16,2.46,13.99,4.15,14.39.4.1.55,0,4.15,0,3.14,0,3.28.08,4.15,0,1.65-.15,4.36-.41,5.84-2.05,2.45-2.71,1.2-8.83-1.69-10.29Z" fill="#fff"/>
      <path d="M149.82,591.43s.04.03.05.05c.01.13.02.25.03.38,7.08,7.42,16.86,2.65,17.09-7.38-.04.01-.07.02-.11.04,0-.16.02-.31.03-.47-6.91,2.53-18.28-3.21-17.09,7.38Z" fill="#fff"/>
      <path d="M386.05,499.56c-14.12-13.26-15.96-7.57-32.47-5.06-27.65,4.19-43.24,12.66-68.44,21.22-11.03,3.75-23.63,2.24-34.48,7.19-.23,16.47-.64,33.08-.37,49.57.08,5.04,2.65,9.74,2.21,14.54-1.38,15.2-23.16,14.94-25.62,2.28-1.84-9.47,5.1-55.25,2.11-58.21h-17.12c-1.16-6.04,1.63-3.41,4.67-4.79,4.74-2.15,13.56-6.55,17.83-7.87,6.48-2.01,1.03,4.91,1.03,5.26v50.83c0,2.24,6.07,4.03,8.56,3.18v-60.36c1.11-1.37,2.43-2.33,3.89-3.1,25.01-4.73,49-13.44,71.63-24.99,24.89-5.04,48.73-17.63,71.07-.49,3.99,3.06,14.8,19.4,18.17,16.93,7.19-15.91,3.73-30.22-.18-46.38l-8.36-.22c3.43-7.51,8.86-10.46,8.13-19.47-2.11-25.99-49.68-55.83-61.63-20.77l23.53,6.4c.7.55-1.24,2.59-2.13,3.17-14.65,9.55-49.68,19.77-67.8,28.21-30.6,14.25-77.08,35.58-97.98,61.88-1.83,2.3-3.01,5.45-3.32,8.37-4.41-2.34-.9-9.25-4.9-14.2-4.74-5.88-24.14-18.26-31.49-24.93-8.21-7.46-14.5-16.65-23.5-23.34,7.7-6.03,24.99,16.54,27.81,13.75-4.41-5.57-2.56-20.59-6.35-24.4-3.56-3.58-18.32-5.52-24.2-7.82-11.53-4.5-22.42-10.56-33.68-15.51-39.84,45.08,21.58,66.9,54.76,83.73l-3.35,65.67,10.69-3.18v-58.24c11.84.93,33.48,13.94,6.43,8.47,1.13,17.38-.79,34.75-1.73,51.88-.17,3.05,2.05,6.5,1.71,10.4-1.3,14.88-26.28,16.36-27.65,2.14-1.25-12.93,5.52-9.93,6.31-12.95,2.62-10.04-2.5-26.2-2.06-35.43.31-6.66,7.55-14.66,3.17-22.48-13.47-1.31-44.57-28.67-53.71-29.57-15.37-1.5-33.98,36.17-38.97,48.16-4.85,11.67-8.75,24.15-11.2,36.56,11.06,9.44,19,13.37,32.1,19.06,3.42-16.97.71-34.47,4.9-51.29.53-2.13.61-6.38,3.63-5.88,1.99,19.94-1.22,40.91.02,61.4,35.42,13.36,77.73,21.62,115.57,23.3,15.2.67,31.78.27,47.08,0,14.4-.25,16.91-1.96,27.14-4.2,12.37-2.7,31.59-2.1,45.62-4.27,4.31-9.55,1.17-20.34,2.4-30.45,1.34-10.99,12.56-51.6,22.24-56.36,3.57-1.76,3.6,1.29,2.29,4.4-11.55,27.56-20.07,48.93-16.23,80.3,29.3-5.77,67.02-16.75,89.88-36-5.93-24.86-18.65-58.13-37.68-76.01Z" fill="#fff"/>
      <path d="M290.33,262.72c-7.42,1.13-8.71,18.54,3.78,14.49,7.23-2.34,2.24-15.41-3.78-14.49Z" fill="#fff"/>
      <path d="M252.8,236.29c-29.64,19.09-16.88,77.5,11.96,93.69,5.69,3.19,17.8,8.43,22.7,10.25,7.38,2.75,30.98-2.7,38.78-5.86,31.83-12.92,40.1-58.03,28.46-87.04-11.34-28.26-79.91-25.2-101.9-11.04ZM291.77,312.96c-36.25,10.58-38.7-50.21-16.69-57.8,36.77-12.68,39.42,51.17,16.69,57.8ZM327.51,268.94c-2.55-4.27-11.02-15.01-15.13-17.85-11.65-8.07-24.8-9.14-37.72-3.74-7.49,3.13-10.46,9.01-17.77,11,6.61-5.32,5.56-11.77,13.45-17.4,22.29-15.9,59.08-.3,57.17,27.99Z" fill="#fff"/>
      <path d="M82.75,216.63c5.66-.93,10.74-2.71,12.41-2.94,8.25-1.12,27.67-.52,36.5.21,25.31,2.09,51.8,13.4,57.8,40.22l35.29,4.23c3.7-17.11,13.68-31.88,30.03-39.16,25.61-11.4,71.97-8.13,97.78,2.72,5.69,2.39,8.52,9.65,17.74,6.78,3.2-7.51-5.47-14.25-6.21-16.49-2.02-6.12-6.62-27.65-6.62-33.27v-43.41c-5.4,1.05-9.07-2.81-12.84-4.24l-9.85-12.64c-3.48-.72-4.53,3.89-5.13,4.17-9.13,4.33-18.59,8.6-27.82,12.71-19.47,5.09-38.56,7.71-58.83,6.33-7.27-.5-13.55-4.37-21.1-4.06-28.2,1.15-50.59,10.86-83.76,8.29-11.71-.91-26.94-7.98-34.43-8.3-3.62-.15-21.74,4.16-24.45,6.21-5.93,4.49-16.14,70.97-14.01,74.14,3.62,5.41,12.78-.72,17.51-1.5ZM265.56,181.15c28.16-19.63,67.43-8.64,72.64,26.36-10.4,1.64-19.85-9.34-29.37-10.12-2.81-.23-25.7-.77-27.06-.57-1.44.21-1.08,4.01-2.79,4.38-2.86.6-22.8-.6-23.94-2.41-3.05-4.8,6.48-14.82,10.52-17.63ZM123.08,173.6c18.19-2.21,42.14,5.58,37.52,27.57-8.31,1.99-17.46-2.07-24.72-2.21-5.21-.09-18.02.36-23.17.75-8.77.67-16.99,10.35-27.01,7.79,2.61-14.6,23.06-32.17,37.38-33.91Z" fill="#fff"/>
      <path d="M51.43,355.77c.09-7.74-.07-15.55,0-23.3.11-10.43,2.7-35.9-10.09-39.79-1.96-.6-10.56-1.01-11.31-.45-9.13,1.03.09-6.23,3.11-6.25,4.69-.03,9.1,4.44,14,4.12-2.07-14,1-23.58-13.71-29.72-23.84,3.86-22.39,43.1-16.88,61.07,1.63,5.31,12.08,26.61,15.72,28.91,2.15,1.37,17.86,6.64,19.15,5.4Z" fill="#fff"/>
      <path d="M147.2,265.1c-13.02.95-4.18,20.92,6.66,14.12,3.97-2.49,3.5-14.86-6.66-14.12Z" fill="#fff"/>
      <path d="M171.3,469.05c5.53,14.07,10.42,28.44,25.66,34.96.52.22,1.1,2.23,3.15,2.17l39.65-29.7c6.96-2.49,23.34-10.42,29.31-14.41,2.75-1.84,5.84-2.4,4.93-6.75-31.09,4.43-62.92,6.53-94.14,2.12l4.25,21.17c-4.91-1.24-6.33-13.09-12.8-9.55Z" fill="#fff"/>
      <path d="M437.52,269.14c-17.47-18.32-33.3-5.69-42.69,12.4-5.87,11.31-4.42,29.64-20.2,10.7-12.12,45.31-53.63,68.4-100.17,55.68-36.26-9.91-48.46-37.29-50.02-72.29-8.58-4.54-13.24-5.56-22.78-3.11-16.59,4.26-8.94,10.48-11.6,22.39-1.29,5.77-5.08,11.9-5.93,17.45-.95,6.2,4.78.17,8.49-.19,3.45-.34,5.45.42,8.62,1.26-.86,3.9-6.89,2.19-10.64,5.32-8.04,6.72-5.65,18.06,2.09,24.3,4.59,3.71,9.84,4.55,12.83,8.45-16.98,2.93-30.99-5.32-29.96-23.26-4.05-1.24-3.62,1.6-4.27,2.11-28.34,22.21-62.38,28.41-94.88,8.12-2.55-1.6-12.17-12.66-14.26-10.22-7.25,97.14,108.66,128.6,186.98,118.32,62.1-8.15,114.37-42.15,127.63-105.61l3.53,18.7,4.22,6.4c47.25,9.78,82.15-66.34,53.01-96.91ZM243.53,365.31c.58-1.46,2.31-2.3,3.83-2.34.15,0,2.65-.04,3.64,1.72.13.23.36.69.36,1.28,0,2.21-1.79,4-4,4s-4-1.79-4-4c0-.29.11-.51.17-.66ZM276.69,374.3c-27.18,17.62-62.12,28.35-94.23,18.05-10.48-3.36-25.23-11.26-24-23.87,8.23,2.64,13.04,10.13,21.39,13.76,21.6,9.4,64.19,5.68,82.43-9.5,4.52-3.76,6.68-15.39,15.09-8.66,4.81,3.85,4.26,7.03-.68,10.23ZM408.83,302.8c5.34-1.25,6.46,2.75,8.57,4.26,7.87,13.73,5.9,19.55-4.28,29.65,3.48-12.63,4.89-39.43-12.84-23.29-2.04,1.85-3.26,4.51-5.36,6.34-5.88-20.12,37.34-59.41,39.6-23.29-9.16-10.84-22.08-6.05-25.69,6.33Z" fill="#fff"/>
      <path d="M137.18,335.77c35.92-7.07,43.96-48.95,37.44-79.66-5.65-26.58-45.54-30.77-67.98-28.9-36.18,3.01-50.45,15.46-46.4,53.15,4.77,44.51,31.68,64.33,76.95,55.41ZM145.75,314.62c-6.71,1.59-14.05,1.14-19.46-3.55-8.14-7.06-9.32-19.71-8.04-29.73,1.22-9.5,5.18-21.54,14.37-26.21,4.94-2.51,9.08-1.1,14.02.19,2.4.62,4.55,1.58,6.46,2.82,6.19,4,9.85,10.89,11.13,18.64,2.32,13.98-2.68,34.11-18.48,37.84ZM92.43,266.43c1.96-13.36,15.35-28.73,29.09-30.88,12.32-1.93,38.43,5.44,39.06,20.68-23.82-20.19-55.55-11.66-66.34,16.94-.18-1.07-2.56-1.62-1.81-6.74Z" fill="#fff"/>
    </g>
  </g>
</svg>