<?xml version="1.0" encoding="UTF-8"?>
<svg id="Contorno" xmlns="http://www.w3.org/2000/svg" viewBox="0 0 459.35 622.53">
  <path d="M455.82,288.12c-1.96-21.03-13.96-30.34-32.24-38.44,11.85-48.06,24.82-106.93-16.95-144.74,10.42-.45,23.19-2.31,12.84-13.8-5.81-6.45-16.94-10.29-25.68-9.53,2.8-22.09-10.09-50.47-34.24-52.93-.86,7.62,2.1,14.62,2.23,22.17.04,2.36,1.17,5.92-2.21,5.34-8.93-18.59-29.62-31.92-48.15-40.25C266-4.46,221.95-1.64,175.5,10.69c-23.31,6.19-51.55,15.33-72.02,24.42l-69.9-6.02c-11.86,3.61-8.12,32.78-3.62,41.93-2.59,2.36-19.13-9.38-23.07,7.87-4.79,20.98,7.05,44.44,25.39,54.9-9.59,18.42-12.91,33.89-10.96,54.86,1.11,11.98,8.26,26.17,10.3,38.52,1.13,6.85-.58,13.97,2.69,20.55-28.54,10.9-35.35,39.98-29.47,67.37,3.4,15.84,17.37,39.31,31.81,46.88,5.81,3.05,12.06,5.22,18.63,5.91,3.5,24.57,22.75,37.6,36.79,55.72-12.85,18.5-18.03,38.54-6.27,59.12-26.05,16.1-34.51,45.06-45.32,71.59-.63,1.56-3.58,1.59-4,3.2-2.13,8.07,5.03,12.77,10.62,17.54,2.45-12.41,6.35-24.89,11.2-36.56,4.99-11.99,23.59-49.66,38.97-48.16,9.14.89,40.25,28.26,53.71,29.57,4.38,7.81-2.86,15.82-3.17,22.48-.44,9.23,4.68,25.4,2.06,35.43-.79,3.01-7.56.02-6.31,12.95,1.38,14.22,26.35,12.75,27.65-2.14.34-3.9-1.88-7.35-1.71-10.4.94-17.13,2.86-34.5,1.73-51.88,27.05,5.48,5.41-7.54-6.43-8.47v58.24l-10.69,3.18,3.35-65.67c-33.18-16.83-94.6-38.65-54.76-83.73,11.26,4.95,22.15,11.01,33.68,15.51,5.88,2.3,20.65,4.24,24.2,7.82,3.79,3.81,1.94,18.83,6.35,24.4-2.82,2.78-20.11-19.79-27.81-13.75,9,6.69,15.29,15.88,23.5,23.34,7.35,6.68,26.75,19.05,31.49,24.93,4,4.95.49,11.86,4.9,14.2.32-2.91,1.49-6.06,3.32-8.37,20.9-26.3,67.38-47.63,97.98-61.88,18.12-8.44,53.15-18.65,67.8-28.21.88-.58,2.83-2.62,2.13-3.17l-23.53-6.4c11.95-35.06,59.52-5.22,61.63,20.77.73,9.01-4.7,11.97-8.13,19.47l8.36.22c3.91,16.16,7.37,30.48.18,46.38-3.37,2.48-14.18-13.87-18.17-16.93-18.99-14.57-39.07-7.66-59.95-2.16-23.24,6.12-57.88,17.63-80.22,26.51-2.5.99-4.7,2.12-6.42,4.24v60.36c-2.49.86-8.56-.94-8.56-3.18v-50.83c0-.35,5.45-7.27-1.03-5.26-4.28,1.33-13.09,5.72-17.83,7.87-3.04,1.38-5.83-1.25-4.67,4.79h17.12c2.99,2.96-3.94,48.74-2.11,58.21,2.46,12.66,24.24,12.92,25.62-2.28.43-4.79-2.13-9.5-2.21-14.54-.27-16.5.14-33.1.37-49.57,10.85-4.95,23.44-3.44,34.48-7.19,25.2-8.56,40.8-17.03,68.44-21.22,16.51-2.5,18.35-8.2,32.47,5.06,19.04,17.89,31.75,51.15,37.68,76.01,7.68-6.47,7.83-14.64,6.28-24.23-1.47-9.08-16.15-28.77-16.7-34.37-.32-3.31,4.97-6.27,6.58-9.8,10.18-22.31-1.04-31.48-2.08-49.66-.47-8.26,3.26-16.39,1.15-26.53-4.21-20.16-29.33-36.18-48.76-38.62l6.78-15.52c53.26,3.05,83.47-38.33,78.81-88.22ZM51.36,354.82c-1.3,1.25-17-4.03-19.15-5.4-3.64-2.31-14.1-23.61-15.72-28.91-5.51-17.97-6.96-57.21,16.88-61.07,14.71,6.14,11.64,15.71,13.71,29.72-4.9.32-9.31-4.16-14-4.12-3.02.02-12.24,7.28-3.11,6.25.75-.56,9.35-.15,11.31.45,12.79,3.89,10.21,29.36,10.09,39.79-.08,7.75.08,15.55,0,23.3ZM166.92,583.55c-.23,10.03-10.01,14.81-17.09,7.38-1.19-10.59,10.18-4.85,17.09-7.38ZM233.56,591.72l-2.41-12.41c3.34,3.04,16.52-.92,17.11,3.21.96,6.66-8.37,12.04-14.71,9.2ZM79.19,143.05c2.71-2.05,20.83-6.36,24.45-6.21,7.49.32,22.72,7.4,34.43,8.3,33.16,2.56,55.56-7.14,83.76-8.29,7.55-.31,13.83,3.57,21.1,4.06,20.27,1.38,39.36-1.24,58.83-6.33,9.23-4.1,18.69-8.38,27.82-12.71.61-.29,1.66-4.89,5.13-4.17l9.85,12.64c3.77,1.43,7.44,5.28,12.84,4.24v43.41c0,5.62,4.59,27.14,6.62,33.27.74,2.24,9.41,8.98,6.21,16.49-9.23,2.88-12.06-4.39-17.74-6.78-25.82-10.84-72.18-14.12-97.78-2.72-16.35,7.28-26.33,22.06-30.03,39.16l-35.29-4.23c-6-26.82-32.49-38.13-57.8-40.22-8.83-.73-28.25-1.32-36.5-.21-1.67.23-6.75,2-12.41,2.94-4.72.78-13.89,6.91-17.51,1.5-2.12-3.17,8.08-69.65,14.01-74.14ZM326.16,333.43c-7.8,3.17-31.4,8.61-38.78,5.86-4.9-1.82-17.01-7.06-22.7-10.25-28.84-16.18-41.6-74.6-11.96-93.69,21.99-14.16,90.56-17.22,101.9,11.04,11.64,29.01,3.36,74.12-28.46,87.04ZM106.56,226.27c22.44-1.87,62.34,2.32,67.98,28.9,6.52,30.71-1.52,72.59-37.44,79.66-45.27,8.92-72.17-10.9-76.95-55.41-4.04-37.7,10.23-50.15,46.4-53.15ZM269,461.12c-5.97,3.99-22.35,11.93-29.31,14.41l-39.65,29.7c-2.04.06-2.62-1.95-3.15-2.17-15.25-6.52-20.14-20.89-25.66-34.96,6.47-3.55,7.89,8.31,12.8,9.55l-4.25-21.17c31.23,4.41,63.05,2.31,94.14-2.12.92,4.35-2.18,4.92-4.93,6.75ZM348.83,426.85c-.88,2.75-10.12,4.85-12.73,5.36-3.62.71-7.07,1.45-10.78.94,1.26-2.23,10.74-7.69,12.32-8.08,4.26-1.06,7.32,1.01,11.2,1.78ZM249.06,445.62c-78.32,10.27-194.23-21.19-186.98-118.32,2.09-2.43,11.7,8.63,14.26,10.22,32.5,20.29,66.54,14.09,94.88-8.12.65-.51.22-3.34,4.27-2.11-1.03,17.95,12.98,26.19,29.96,23.26-2.99-3.9-8.24-4.74-12.83-8.45-7.74-6.25-10.13-17.58-2.09-24.3,3.74-3.13,9.78-1.43,10.64-5.32-3.17-.84-5.18-1.6-8.62-1.26-3.71.37-9.44,6.39-8.49.19.85-5.56,4.64-11.69,5.93-17.45,2.66-11.91-4.99-18.13,11.6-22.39,9.54-2.45,14.2-1.43,22.78,3.11,1.56,35,13.75,62.38,50.02,72.29,46.54,12.72,88.05-10.38,100.17-55.68,15.79,18.94,14.33.61,20.2-10.7,9.39-18.09,25.23-30.72,42.69-12.4,29.14,30.57-5.76,106.69-53.01,96.91l-4.22-6.4-3.53-18.7c-13.25,63.46-65.52,97.46-127.63,105.61ZM278.91,200.26c1.72-.36,1.36-4.16,2.79-4.38,1.36-.2,24.25.34,27.06.57,9.53.78,18.98,11.76,29.37,10.12-5.21-35-44.48-45.99-72.64-26.36-4.04,2.81-13.57,12.83-10.52,17.63,1.15,1.81,21.08,3.01,23.94,2.41ZM112.63,198.78c5.14-.39,17.96-.85,23.17-.75,7.26.13,16.41,4.2,24.72,2.21,4.63-21.99-19.33-29.78-37.52-27.57-14.33,1.74-34.78,19.31-37.38,33.91,10.02,2.56,18.25-7.12,27.01-7.79ZM160.51,255.29c-.64-15.25-26.75-22.61-39.06-20.68-13.74,2.15-27.13,17.53-29.09,30.88-.75,5.12,1.63,5.67,1.81,6.74,10.79-28.6,42.52-37.13,66.34-16.94ZM87.73,536.96c-3.02-.5-3.1,3.75-3.63,5.88-4.2,16.82-1.48,34.32-4.9,51.29,2.9,1.26,5.62,3.12,8.56,4.24-1.24-20.49,1.97-41.46-.02-61.4ZM347.8,526.37c-9.68,4.76-20.9,45.38-22.24,56.36-1.23,10.11,1.91,20.9-2.4,30.45,3.84-.59,7.02-1.39,10.7-2.12-3.84-31.37,4.68-52.74,16.23-80.3,1.3-3.11,1.28-6.15-2.29-4.4ZM270.27,240.01c-7.89,5.63-6.84,12.08-13.45,17.4,7.31-1.99,10.28-7.87,17.77-11,12.92-5.4,26.07-4.33,37.72,3.74,4.11,2.84,12.58,13.59,15.13,17.85,1.91-28.29-34.89-43.88-57.17-27.99ZM400.2,312.47c17.73-16.13,16.32,10.67,12.84,23.29,10.18-10.1,12.15-15.92,4.28-29.65-2.11-1.5-3.22-5.51-8.57-4.26,3.61-12.38,16.52-17.17,25.69-6.33-2.26-36.13-45.48,3.16-39.6,23.29,2.1-1.83,3.32-4.49,5.36-6.34ZM277.3,363.13c-8.42-6.73-10.57,4.9-15.09,8.66-18.24,15.18-60.83,18.9-82.43,9.5-8.34-3.63-13.16-11.12-21.39-13.76-1.22,12.61,13.52,20.51,24,23.87,32.11,10.3,67.05-.43,94.23-18.05,4.94-3.2,5.49-6.38.68-10.23ZM153.02,257.2c-1.91-1.23-4.06-2.19-6.46-2.82-4.94-1.29-9.08-2.7-14.02-.19-9.19,4.67-13.15,16.71-14.37,26.21-1.28,10.01-.11,22.67,8.04,29.73,5.41,4.69,12.75,5.13,19.46,3.55,15.8-3.74,20.8-23.86,18.48-37.84-1.28-7.74-4.94-14.64-11.13-18.64ZM153.79,278.28c-10.84,6.8-19.68-13.17-6.66-14.12,10.16-.74,10.63,11.64,6.66,14.12ZM275,254.21c-22.01,7.59-19.56,68.38,16.69,57.8,22.73-6.63,20.08-70.49-16.69-57.8ZM294.03,276.27c-12.49,4.04-11.2-13.37-3.78-14.49,6.02-.91,11.01,12.15,3.78,14.49ZM247.29,369.02c2.21,0,4-1.79,4-4,0-.59-.23-1.05-.36-1.28-.99-1.76-3.49-1.72-3.64-1.72-1.52.04-3.24.89-3.83,2.34-.06.15-.17.36-.17.66,0,2.21,1.79,4,4,4Z" fill="#111732"/>
</svg>