<?xml version="1.0" encoding="UTF-8"?>
<svg id="Capa_2" data-name="Capa 2" xmlns="http://www.w3.org/2000/svg" viewBox="0 0 587.01 651.14">
  <g id="Imagotipo_Color" data-name="Imagotipo Color">
    <path id="Piel"
      d="M245.19,373.14l3.79,17.29c-4.38-1.01-5.65-10.7-11.42-7.8,4.93,11.49,9.29,23.24,22.89,28.56.47.18.98,1.82,2.81,1.78l35.36-24.27c6.2-2.03,20.81-8.52,26.13-11.78,2.45-1.5,5.21-1.96,4.39-5.52-27.73,3.62-56.1,5.33-83.95,1.73ZM474.96,219.31c-15.58-14.97-29.7-4.65-38.07,10.13-5.24,9.24-3.94,24.22-18.02,8.74-10.81,37.02-47.83,55.89-89.33,45.49-32.34-8.1-43.22-30.47-44.6-59.06-7.65-3.71-11.81-4.54-20.32-2.54-14.8,3.48-7.97,8.56-10.35,18.29-1.15,4.71-4.53,9.72-5.28,14.26-.85,5.07,4.26.14,7.57-.16,3.07-.28,4.86.34,7.69,1.03-.76,3.18-6.15,1.79-9.48,4.35-7.17,5.49-5.03,14.75,1.86,19.85,4.09,3.03,8.77,3.72,11.44,6.9-15.15,2.39-27.64-4.34-26.72-19.01-3.61-1.01-3.23,1.3-3.81,1.72-25.27,18.14-55.62,23.21-84.61,6.63-2.28-1.3-10.85-10.34-12.71-8.35-6.46,79.36,96.9,105.06,166.74,96.67,55.38-6.66,101.99-34.43,113.81-86.28l3.15,15.28,3.76,5.23c42.13,7.99,73.26-54.2,47.27-79.18ZM331.54,305.23c-24.23,14.39-55.39,23.17-84.03,14.75-9.35-2.75-22.49-9.2-21.41-19.5,7.34,2.16,11.63,8.28,19.07,11.24,19.27,7.68,57.24,4.64,73.51-7.76,4.03-3.08,5.95-12.57,13.46-7.08,4.29,3.14,3.8,5.74-.61,8.36ZM449.38,246.81c4.76-1.02,5.76,2.25,7.64,3.48,7.02,11.22,5.26,15.97-3.82,24.22,3.1-10.32,4.36-32.21-11.45-19.03-1.82,1.51-2.91,3.69-4.78,5.18-5.24-16.44,33.3-48.54,35.31-19.02-8.17-8.85-19.69-4.94-22.91,5.17ZM158.59,176.41c5.05-.76,9.58-2.21,11.06-2.4,7.36-.91,24.68-.42,32.55.17,22.57,1.71,46.19,10.95,51.54,32.86l31.47,3.46c3.3-13.98,12.2-26.05,26.78-32,22.84-9.32,64.18-6.64,87.2,2.22,5.07,1.95,7.59,7.88,15.82,5.54,2.85-6.14-4.88-11.64-5.54-13.47-1.8-5-5.9-22.59-5.9-27.18v-35.47c-4.81.86-8.09-2.29-11.45-3.46l-8.78-10.33c-3.1-.58-4.04,3.18-4.58,3.41-8.14,3.53-16.58,7.03-24.81,10.38-17.36,4.16-34.39,6.3-52.47,5.17-6.48-.4-12.09-3.57-18.82-3.32-25.15.94-45.12,8.87-74.69,6.77-10.45-.74-24.03-6.52-30.7-6.78-3.23-.13-19.39,3.4-21.8,5.07-5.29,3.67-14.39,57.98-12.5,60.58,3.22,4.42,11.4-.59,15.61-1.22ZM321.61,147.42c25.11-16.04,60.13-7.06,64.78,21.53-9.27,1.34-17.7-7.63-26.19-8.27-2.5-.19-22.92-.63-24.13-.47-1.28.17-.96,3.28-2.49,3.57-2.55.49-20.33-.49-21.35-1.97-2.72-3.92,5.78-12.11,9.38-14.41ZM194.55,141.25c16.22-1.8,37.58,4.56,33.45,22.53-7.41,1.62-15.57-1.69-22.04-1.8-4.65-.08-16.07.3-20.66.62-7.82.54-15.15,8.45-24.09,6.36,2.32-11.93,20.56-26.29,33.34-27.7ZM310.23,192.47c-26.44,15.59-15.06,63.32,10.66,76.54,5.07,2.61,15.88,6.89,20.24,8.38,6.58,2.25,27.62-2.2,34.58-4.79,28.38-10.56,35.76-47.41,25.38-71.11-10.11-23.09-71.26-20.59-90.87-9.02ZM355.54,262.96c-32.53,8.55-60.28-27.4-41.66-52.47,5.9-4.35,4.96-9.61,11.99-14.21,19.87-12.99,52.69-.25,50.99,22.87,8.8,13.5-4.55,39.41-21.32,43.82ZM207.12,273.75c32.03-5.78,39.2-39.99,33.39-65.08-5.03-21.72-40.61-25.14-60.62-23.61-32.26,2.46-44.99,12.63-41.38,43.43,4.26,36.37,28.25,52.55,68.62,45.27ZM167.22,217.09c1.75-10.91,13.69-23.47,25.94-25.23,10.98-1.57,34.27,4.44,34.84,16.9,10.43,8.09,7.13,37.82-1.89,47.6-9.73,10.54-32.44,9.92-43.96,1.76-15.1-10.7-10.67-21.21-13.31-35.51-.16-.88-2.28-1.33-1.61-5.51ZM121.67,238.54c-1.75-.49-9.42-.82-10.08-.37-8.14.84.08-5.09,2.77-5.11,4.18-.03,8.11,3.63,12.48,3.37-1.85-11.44.89-19.26-12.23-24.28-21.26,3.16-19.97,35.22-15.05,49.89,1.45,4.34,10.78,21.74,14.02,23.62,1.92,1.12,15.92,5.43,17.08,4.41.08-6.33-.07-12.71,0-19.04.1-8.52,2.41-29.33-9-32.51Z"
      fill="#fce1c3" />
    <path id="Saco"
      d="M305.55,473.91c-1.09-.5-1.82-.05-7.45,0-.8,0-1.45,0-1.86,0-1.86-.56-3.73-1.13-5.59-1.69.52,9.2,2.21,11.53,3.73,11.86.36.08.49,0,3.73,0,2.82,0,2.94.07,3.73,0,1.48-.13,3.91-.33,5.24-1.69,2.2-2.23,1.08-7.28-1.51-8.48ZM430.69,406.68c-12.67-10.93-14.32-6.24-29.14-4.17-24.81,3.46-38.8,10.43-61.42,17.49-9.9,3.09-21.2,1.84-30.94,5.92-.21,13.57-.57,27.25-.33,40.84.07,4.15,2.38,8.03,1.99,11.98-1.23,12.53-20.78,12.31-22.99,1.88-1.65-7.8,4.57-45.52,1.89-47.96h-15.36c-1.04-4.98,1.46-2.81,4.19-3.95,4.25-1.77,12.16-5.39,16-6.49,5.81-1.66.92,4.05.92,4.34v41.88c0,1.85,5.45,3.32,7.68,2.62v-49.73c1-1.13,2.18-1.92,3.49-2.55,22.44-3.9,43.97-11.08,64.28-20.59,22.34-4.15,43.73-14.53,63.78-.4,3.58,2.52,13.28,15.99,16.31,13.95,6.45-13.11,3.35-24.9-.16-38.22l-7.5-.18c3.08-6.19,7.95-8.62,7.3-16.05-1.89-21.41-44.58-46-55.3-17.11l21.12,5.28c.63.45-1.12,2.13-1.91,2.61-13.15,7.87-44.58,16.29-60.84,23.24-27.46,11.74-69.17,29.31-87.92,50.98-1.64,1.9-2.7,4.49-2.98,6.89-3.95-1.93-.81-7.62-4.39-11.7-4.26-4.84-21.66-15.04-28.26-20.54-7.37-6.14-13.01-13.72-21.09-19.23,6.91-4.97,22.43,13.63,24.96,11.33-3.96-4.59-2.3-16.96-5.7-20.1-3.19-2.95-16.44-4.55-21.72-6.44-10.35-3.71-20.12-8.7-30.23-12.78-35.75,37.14,19.36,55.12,49.14,68.99l-3.01,54.11,9.59-2.62v-47.98c10.62.77,30.05,11.49,5.77,6.98,1.01,14.32-.71,28.63-1.55,42.75-.15,2.51,1.84,5.36,1.53,8.57-1.17,12.26-23.58,13.48-24.81,1.76-1.12-10.65,4.96-8.19,5.66-10.67,2.35-8.27-2.24-21.59-1.85-29.2.28-5.48,6.77-12.08,2.85-18.52-12.08-1.08-40-23.63-48.2-24.36-13.8-1.24-30.49,29.8-34.97,39.68-4.36,9.62-7.85,19.9-10.05,30.13,9.93,7.78,17.05,11.01,28.81,15.7,3.07-13.98.63-28.4,4.4-42.26.48-1.75.55-5.26,3.26-4.84,1.79,16.43-1.09,33.7.02,50.59,31.79,11.01,69.75,17.82,103.7,19.19,13.64.55,28.52.22,42.25,0,12.92-.21,15.17-1.62,24.35-3.46,11.1-2.23,28.35-1.73,40.94-3.52,3.87-7.87,1.05-16.76,2.15-25.09,1.2-9.05,11.27-42.52,19.95-46.44,3.2-1.45,3.23,1.06,2.06,3.62-10.37,22.71-18.01,40.31-14.56,66.16,26.29-4.75,60.14-13.8,80.66-29.66-5.32-20.48-16.73-47.89-33.82-62.63ZM218.7,482.38c6.35,6.12,15.13,2.18,15.34-6.08-6.2,2.09-16.4-2.65-15.34,6.08ZM385.85,351.61c2.34-.42,10.63-2.15,11.43-4.42-3.49-.63-6.22-2.34-10.05-1.46-1.41.32-9.92,4.82-11.05,6.66,3.33.42,6.43-.19,9.68-.78Z"
      fill="#dc2626" />
    <text transform="translate(73.85 587.4) scale(.93 1)" fill="#0284c7" font-family="MarykateRegular, Marykate"
      font-size="109.55">
      <tspan x="0" y="0">Diego Suarez</tspan>
    </text>
    <text transform="translate(0 623.69) scale(.94 1)" fill="#070101" font-family="Poppins-Regular, Poppins"
      font-size="48">
      <tspan x="0" y="0">Desarrollador de software</tspan>
    </text>
    <path id="Ojos"
      d="M375.11,218.54c-2.27-3.52-9.83-12.37-13.49-14.71-10.39-6.65-22.11-7.53-33.64-3.08-6.68,2.58-9.33,7.42-15.85,9.07-18.62,25.28,9.12,61.54,41.65,52.91,16.77-4.44,30.12-30.57,21.32-44.19ZM343.23,254.81c-32.33,8.72-34.51-41.37-14.88-47.62,32.78-10.45,35.15,42.16,14.88,47.62ZM226.26,208.07c-21.24-16.63-49.53-9.61-59.16,13.96,2.65,14.42-1.79,25.02,13.31,35.81,11.52,8.23,34.23,8.86,43.95-1.77,9.02-9.86,12.32-39.83,1.89-48ZM213.04,256.18c-38.2,8.34-27.61-59.46-.58-49.23.48.18.47,2.2.85,2.32,1.45.44,3.01-1.48,6.31.35,16.18,9,13.07,42.27-6.57,46.56ZM341.95,213.42c-6.62.93-7.77,15.27,3.37,11.94,6.45-1.93,2-12.69-3.37-11.94ZM214.33,215.38c-11.61.78-3.73,17.24,5.94,11.64,3.54-2.05,3.12-12.25-5.94-11.64Z"
      fill="#f0eefa" />
    <path id="Contorno"
      d="M493.01,234.41c-1.76-17.17-12.5-24.77-28.86-31.38,10.61-39.24,22.22-87.3-15.17-118.17,9.32-.37,20.76-1.89,11.5-11.27-5.21-5.27-15.16-8.4-22.99-7.78,2.5-18.04-9.04-41.21-30.65-43.22-.77,6.22,1.88,11.94,1.99,18.1.04,1.92,1.04,4.83-1.98,4.36-8-15.18-26.51-26.06-43.1-32.86-40.66-16.67-80.09-14.37-121.67-4.3-20.87,5.06-46.15,12.52-64.47,19.94l-62.57-4.91c-10.62,2.94-7.27,26.76-3.24,34.23-2.32,1.92-17.12-7.66-20.65,6.43-4.29,17.13,6.31,36.28,22.73,44.82-8.59,15.04-11.56,27.67-9.81,44.8,1,9.78,7.4,21.37,9.22,31.45,1.01,5.59-.52,11.41,2.4,16.78-25.55,8.9-31.64,32.64-26.38,55.01,3.04,12.93,15.55,32.1,28.47,38.28,5.2,2.49,10.79,4.26,16.68,4.82,3.13,20.06,20.36,30.7,32.93,45.49-11.5,15.1-16.14,31.47-5.61,48.27-23.32,13.14-30.89,36.79-40.57,58.45-.57,1.27-3.2,1.3-3.58,2.61-1.91,6.59,4.5,10.43,9.51,14.32,2.19-10.13,5.68-20.33,10.03-29.85,4.47-9.79,21.12-40.55,34.88-39.32,8.18.73,36.03,23.07,48.08,24.14,3.92,6.38-2.56,12.92-2.84,18.35-.39,7.54,4.19,20.73,1.85,28.93-.7,2.46-6.77.01-5.65,10.57,1.23,11.61,23.59,10.41,24.75-1.74.31-3.18-1.68-6-1.53-8.49.84-13.99,2.56-28.17,1.55-42.36,24.22,4.47,4.84-6.15-5.76-6.91v47.55l-9.57,2.6,3-53.62c-29.7-13.74-84.68-31.56-49.02-68.37,10.08,4.04,19.83,8.99,30.15,12.66,5.27,1.88,18.48,3.46,21.67,6.38,3.39,3.11,1.74,15.38,5.69,19.92-2.52,2.27-18-16.16-24.89-11.23,8.06,5.46,13.68,12.96,21.03,19.05,6.58,5.45,23.94,15.56,28.19,20.36,3.58,4.04.44,9.69,4.38,11.59.28-2.38,1.34-4.95,2.98-6.83,18.71-21.47,60.31-38.89,87.7-50.52,16.22-6.89,47.58-15.23,60.69-23.03.79-.47,2.53-2.14,1.91-2.58l-21.07-5.23c10.7-28.62,53.27-4.26,55.16,16.96.66,7.36-4.21,9.77-7.28,15.9l7.48.18c3.5,13.2,6.59,24.88.16,37.87-3.02,2.02-12.69-11.32-16.27-13.82-17-11.9-34.97-6.25-53.66-1.76-20.81,5-51.81,14.4-71.81,21.64-2.24.81-4.21,1.73-5.75,3.46v49.28c-2.23.7-7.66-.76-7.66-2.59v-41.5c0-.29,4.88-5.94-.92-4.3-3.83,1.08-11.72,4.67-15.96,6.43-2.72,1.13-5.22-1.02-4.18,3.91h15.33c2.68,2.42-3.53,39.79-1.89,47.52,2.2,10.34,21.7,10.55,22.93-1.86.39-3.91-1.91-7.76-1.98-11.87-.24-13.47.12-27.03.33-40.47,9.71-4.04,20.99-2.81,30.86-5.87,22.56-6.99,36.52-13.9,61.27-17.33,14.78-2.04,16.43-6.69,29.06,4.13,17.04,14.6,28.42,41.76,33.73,62.06,6.88-5.28,7.01-11.95,5.62-19.78-1.32-7.42-14.46-23.49-14.95-28.06-.29-2.7,4.45-5.12,5.89-8,9.12-18.22-.93-25.7-1.86-40.55-.42-6.75,2.92-13.38,1.03-21.66-3.77-16.46-26.25-29.54-43.64-31.53l6.07-12.67c47.67,2.49,74.71-31.29,70.55-72.03ZM130.96,288.87c-1.16,1.02-15.22-3.29-17.14-4.41-3.26-1.88-12.62-19.27-14.07-23.61-4.93-14.67-6.23-46.71,15.11-49.86,13.16,5.01,10.42,12.83,12.27,24.26-4.39.26-8.33-3.39-12.53-3.37-2.71.02-10.96,5.95-2.79,5.1.67-.46,8.37-.12,10.12.37,11.45,3.18,9.14,23.97,9.04,32.49-.08,6.32.07,12.7,0,19.02ZM234.41,475.61c-.2,8.19-8.96,12.09-15.3,6.03-1.06-8.65,9.12-3.96,15.3-6.03ZM294.06,482.28l-2.15-10.13c2.99,2.48,14.78-.75,15.32,2.62.86,5.44-7.49,9.83-13.16,7.51ZM155.88,115.96c2.43-1.67,18.64-5.2,21.88-5.07,6.7.26,20.33,6.04,30.82,6.78,29.69,2.09,49.73-5.83,74.97-6.77,6.76-.25,12.38,2.91,18.89,3.32,18.14,1.13,35.24-1.01,52.66-5.17,8.27-3.35,16.73-6.84,24.9-10.37.54-.23,1.48-3.99,4.6-3.41l8.81,10.32c3.38,1.17,6.66,4.31,11.49,3.46v35.45c0,4.59,4.11,22.16,5.92,27.16.66,1.83,8.42,7.33,5.56,13.46-8.26,2.35-10.79-3.58-15.88-5.53-23.11-8.85-64.61-11.53-87.53-2.22-14.64,5.95-23.57,18.01-26.88,31.98l-31.59-3.46c-5.37-21.9-29.08-31.13-51.74-32.84-7.9-.59-25.29-1.08-32.67-.17-1.49.18-6.04,1.63-11.11,2.4-4.23.64-12.43,5.64-15.67,1.22-1.9-2.59,7.23-56.87,12.54-60.54ZM376.94,271.4c-6.98,2.59-28.11,7.03-34.71,4.79-4.38-1.49-15.23-5.77-20.32-8.37-25.82-13.21-37.24-60.91-10.7-76.49,19.68-11.56,81.07-14.06,91.21,9.01,10.42,23.69,3.01,60.51-25.48,71.06ZM180.38,183.91c20.09-1.52,55.8,1.9,60.85,23.6,5.84,25.07-1.36,59.27-33.51,65.04-40.52,7.28-64.6-8.9-68.88-45.24-3.62-30.78,9.16-40.94,41.54-43.4ZM325.78,375.65c-5.34,3.26-20.01,9.74-26.23,11.77l-35.49,24.25c-1.83.05-2.35-1.59-2.82-1.77-13.65-5.32-18.02-17.06-22.97-28.54,5.79-2.9,7.06,6.78,11.46,7.79l-3.8-17.28c27.95,3.6,56.44,1.89,84.27-1.73.82,3.55-1.95,4.01-4.41,5.51ZM397.24,347.67c-.79,2.25-9.06,3.96-11.4,4.38-3.24.58-6.33,1.19-9.65.77,1.13-1.82,9.62-6.28,11.02-6.6,3.82-.87,6.55.83,10.02,1.45ZM307.94,363c-70.11,8.39-173.86-17.3-167.37-96.61,1.87-1.99,10.48,7.05,12.76,8.35,29.09,16.57,59.56,11.51,84.93-6.63.58-.42.2-2.73,3.82-1.72-.92,14.65,11.62,21.39,26.82,18.99-2.68-3.18-7.38-3.87-11.48-6.9-6.92-5.1-9.07-14.35-1.87-19.84,3.35-2.55,8.75-1.16,9.52-4.34-2.84-.69-4.63-1.31-7.72-1.03-3.32.3-8.45,5.22-7.6.16.76-4.54,4.15-9.54,5.3-14.25,2.38-9.72-4.47-14.8,10.39-18.28,8.54-2,12.71-1.17,20.4,2.54,1.39,28.57,12.31,50.93,44.77,59.02,41.66,10.39,78.82-8.47,89.67-45.46,14.13,15.47,12.83.5,18.09-8.73,8.41-14.77,22.58-25.08,38.22-10.12,26.09,24.96-5.15,87.11-47.45,79.12l-3.78-5.22-3.16-15.27c-11.86,51.82-58.65,79.58-114.24,86.23ZM334.65,162.67c1.54-.3,1.21-3.4,2.5-3.57,1.21-.16,21.71.28,24.22.46,8.53.64,16.99,9.6,26.29,8.26-4.66-28.57-39.82-37.55-65.03-21.52-3.61,2.3-12.15,10.48-9.42,14.4,1.03,1.47,18.87,2.46,21.43,1.97ZM185.81,161.46c4.6-.32,16.07-.69,20.74-.62,6.5.11,14.69,3.43,22.12,1.8,4.14-17.96-17.3-24.31-33.58-22.51-12.82,1.42-31.13,15.76-33.46,27.69,8.97,2.09,16.33-5.81,24.18-6.36ZM228.67,207.6c-.57-12.45-23.94-18.46-34.97-16.89-12.3,1.76-24.28,14.31-26.04,25.21-.67,4.18,1.46,4.63,1.62,5.51,9.66-23.35,38.06-30.31,59.39-13.83ZM163.52,437.57c-2.71-.41-2.78,3.06-3.25,4.8-3.76,13.73-1.33,28.02-4.39,41.88,2.59,1.03,5.03,2.55,7.66,3.46-1.11-16.73,1.76-33.85-.02-50.13ZM396.32,428.93c-8.66,3.89-18.71,37.05-19.9,46.02-1.1,8.26,1.71,17.07-2.15,24.86,3.44-.48,6.29-1.14,9.58-1.73-3.44-25.62,4.19-43.06,14.53-65.56,1.17-2.54,1.14-5.02-2.05-3.59ZM326.92,195.12c-7.06,4.6-6.12,9.86-12.04,14.2,6.54-1.63,9.2-6.43,15.91-8.98,11.57-4.41,23.34-3.53,33.77,3.05,3.68,2.32,11.26,11.09,13.54,14.58,1.71-23.1-31.23-35.83-51.18-22.85ZM443.23,254.28c15.87-13.17,14.61,8.71,11.49,19.02,9.11-8.25,10.87-13,3.83-24.21-1.89-1.23-2.89-4.49-7.67-3.48,3.23-10.1,14.79-14.02,22.99-5.17-2.02-29.5-40.71,2.58-35.45,19.01,1.88-1.49,2.97-3.67,4.8-5.18ZM333.21,295.65c-7.53-5.49-9.46,4-13.51,7.07-16.33,12.39-54.45,15.43-73.79,7.76-7.47-2.96-11.78-9.08-19.14-11.23-1.09,10.3,12.1,16.75,21.49,19.49,28.74,8.41,60.02-.35,84.35-14.74,4.42-2.61,4.92-5.21.61-8.35ZM221.97,209.16c-1.71-1.01-3.63-1.79-5.78-2.3-4.43-1.05-8.13-2.2-12.55-.15-8.22,3.81-11.77,13.64-12.86,21.4-1.15,8.18-.1,18.51,7.19,24.27,4.84,3.83,11.41,4.19,17.42,2.9,14.15-3.05,18.62-19.48,16.54-30.9-1.15-6.32-4.42-11.95-9.96-15.22ZM222.65,226.37c-9.71,5.55-17.62-10.76-5.96-11.53,9.1-.6,9.51,9.5,5.96,11.53ZM331.15,206.72c-19.7,6.2-17.51,55.83,14.94,47.2,20.34-5.41,17.97-57.55-14.94-47.2ZM348.19,224.73c-11.18,3.3-10.02-10.92-3.38-11.83,5.39-.75,9.86,9.92,3.38,11.83ZM306.34,300.46c1.98,0,3.58-1.46,3.58-3.27,0-.48-.21-.86-.32-1.05-.88-1.44-3.13-1.4-3.26-1.4-1.36.04-2.9.72-3.43,1.91-.05.12-.15.29-.15.54,0,1.8,1.6,3.27,3.58,3.27Z"
      fill="#070101" />
  </g>
</svg>